P3
4 3
255
0
0
0
0
0
0
0
0
0
240
240
240
255
255
255
255
255
255
233
233
233
9
9
9
0
0
0
255
255
255
0
0
0
255
255
255
